HIERARCHY
ROOT Hips
{
	OFFSET 0.00000 0.00000 0.00000
	CHANNELS 6 Xposition Yposition Zposition Zrotation Yrotation Xrotation 
	JOINT LHipJoint
	{
		OFFSET 0 0 0
		CHANNELS 3 Zrotation Yrotation Xrotation
		JOINT LeftHip
		{
			OFFSET 1.40001 -1.72600 0.84541
			CHANNELS 3 Zrotation Yrotation Xrotation
			JOINT LeftKnee
			{
				OFFSET 2.34760 -6.44999 0.00000
				CHANNELS 3 Zrotation Yrotation Xrotation
				JOINT LeftAnkle
				{
					OFFSET 2.50650 -6.88655 0.00000
					CHANNELS 3 Zrotation Yrotation Xrotation
					JOINT LeftToe
					{
						OFFSET 0.12464 -0.34243 1.95563
						CHANNELS 3 Zrotation Yrotation Xrotation
						End Site
						{
							OFFSET 0.00000 -0.00000 1.00479
						}
					}
				}
			}
		}
	}
	JOINT RHipJoint
	{
		OFFSET 0 0 0
		CHANNELS 3 Zrotation Yrotation Xrotation
		JOINT RightHip
		{
			OFFSET -1.40958 -1.72600 0.84541
			CHANNELS 3 Zrotation Yrotation Xrotation
			JOINT RightKnee
			{
				OFFSET -2.37905 -6.53640 0.00000
				CHANNELS 3 Zrotation Yrotation Xrotation
				JOINT RightAnkle
				{
					OFFSET -2.50470 -6.88163 0.00000
					CHANNELS 3 Zrotation Yrotation Xrotation
					JOINT RightToe
					{
						OFFSET -0.12236 -0.33619 1.81785
						CHANNELS 3 Zrotation Yrotation Xrotation
						End Site
						{
							OFFSET -0.00000 -0.00000 0.93746
						}
					}
				}
			}
		}
	}
	JOINT lowerback
	{
		OFFSET 0 0 0
		CHANNELS 3 Zrotation Yrotation Xrotation
		JOINT Chest
		{
			OFFSET -0.02146 1.96915 0.26424
			CHANNELS 3 Zrotation Yrotation Xrotation
			JOINT Chest2
			{
				OFFSET 0.01522 1.99484 0.02086
				CHANNELS 3 Zrotation Yrotation Xrotation
				JOINT lowerneck
				{
					OFFSET 0 0 0
					CHANNELS 3 Zrotation Yrotation Xrotation
					JOINT Neck
					{
						OFFSET -0.02954 1.71757 0.03505
						CHANNELS 3 Zrotation Yrotation Xrotation
						JOINT Head
						{
							OFFSET 0.04170 1.65781 -0.11024
							CHANNELS 3 Zrotation Yrotation Xrotation
							End Site
							{
								OFFSET 0.01600 1.81465 -0.05144
							}
						}
					}
				}
				JOINT LeftCollar
				{
					OFFSET 0 0 0
					CHANNELS 3 Zrotation Yrotation Xrotation
					JOINT LeftShoulder
					{
						OFFSET 2.77679 1.60868 -0.78649
CHANNELS 3 Zrotation Xrotation Yrotation
						JOINT LeftElbow
						{
OFFSET 0 -4.626720 -0.000000
CHANNELS 3 Zrotation Xrotation Yrotation
							JOINT LeftWrist
							{
OFFSET 0 -3.110180 -0.000000
CHANNELS 3 Zrotation Xrotation Yrotation
								JOINT lhand
								{
									OFFSET 0 0 0
CHANNELS 3 Zrotation Xrotation Yrotation
									JOINT LFingers
									{
OFFSET 0 -0.743830 -0.000000
CHANNELS 3 Zrotation Xrotation Yrotation
										End Site
										{
OFFSET 0 -0.599700 -0.000000
										}
									}
								}
								JOINT LThumb
								{
OFFSET 0 0.000000 0.000000
CHANNELS 3 Zrotation Xrotation Yrotation
									End Site
									{
OFFSET 0 -0.608850 0.608850
									}
								}
							}
						}
					}
				}
				JOINT RightCollar
				{
					OFFSET 0 0 0
					CHANNELS 3 Zrotation Yrotation Xrotation
					JOINT RightShoulder
					{
						OFFSET -2.73247 1.63658 -0.74740
CHANNELS 3 Zrotation Xrotation Yrotation
						JOINT RightElbow
						{
OFFSET 0 -4.559190 -0.000000
CHANNELS 3 Zrotation Xrotation Yrotation
							JOINT RightWrist
							{
OFFSET 0 -3.227480 -0.000000
CHANNELS 3 Zrotation Xrotation Yrotation
								JOINT rhand
								{
									OFFSET 0 0 0
CHANNELS 3 Zrotation Xrotation Yrotation
									JOINT RFingers
									{
OFFSET 0 -0.700880 -0.000000
CHANNELS 3 Zrotation Xrotation Yrotation
										End Site
										{
OFFSET 0 -0.565070 -0.000000
										}
									}
								}
								JOINT RThumb
								{
OFFSET 0 0.000000 0.000000
CHANNELS 3 Zrotation Xrotation Yrotation
									End Site
									{
OFFSET 0 -0.573700 0.573700
									}
								}
							}
						}
					}
				}
			}
		}
	}
}
MOTION
Frames: 8
Frame Time: 0.008333333333333333
-0.808700 16.559800 -44.111500 -0.501300 0.029100 19.253000 0.000000 0.000000 0.000000 -16.439000 -8.890600 -48.866400 11.064500 17.966500 62.990800 0.224600 0.791300 -9.276000 0.049700 -1.439200 -3.958000 0.000000 0.000000 0.000000 24.460200 2.356500 -29.249800 -3.141300 -10.920400 32.012000 -0.917700 18.065300 -19.922900 -0.000100 0.055100 -0.151400 1.193900 0.209400 -16.199000 1.960200 -0.020700 -4.520900 1.386500 -0.003300 4.264300 1.272500 -0.664600 -5.297300 -3.727300 -0.667400 8.511600 -1.492800 -0.449000 3.694200 -0.000000 0.000000 0.000000 -0.694900 11.276600 -24.933600 10.626200 -17.713000 1.660400 13.904900 10.069400 17.555000 0.000000 0.000000 0.000000 -7.125000 0.000000 0.000000 -9.260300 12.105300 -7.209500 -0.000000 0.000000 0.000000 -3.553300 -0.645100 20.900400 -20.112400 -30.777500 -5.588700 -16.936000 1.662800 33.323200 0.000000 0.000000 0.000000 7.125000 0.000000 -0.000000 19.290000 63.470600 -8.807900
-0.801524 16.542790 -43.989442 -0.938701 -0.649360 19.485222 0.000000 0.000000 0.000000 -16.090368 -8.528413 -49.649443 10.619391 17.740191 61.534678 0.245796 1.156344 -9.858249 0.085380 -1.860588 -5.121236 0.000000 0.000000 0.000000 24.807570 2.343145 -29.074454 -3.167878 -10.961928 32.151599 -0.879628 18.905950 -20.027350 -0.000034 -0.008487 0.023348 1.545123 0.598297 -16.557266 1.919337 0.432249 -4.795115 1.235539 0.220749 4.161445 1.470570 -0.764731 -3.784568 -3.817132 -0.815969 7.988752 -1.536852 -0.503218 3.218062 0.000000 0.000000 0.000000 -0.595500 12.341765 -25.250339 10.557032 -17.606091 1.639470 13.538394 9.736316 18.090207 0.000000 0.000000 0.000000 -7.125000 0.000000 0.000000 -9.509266 11.601787 -7.510691 0.000000 0.000000 0.000000 -3.598615 -0.351617 21.119001 -20.919496 -31.728049 -6.010354 -15.828244 2.172160 34.972674 0.000000 0.000000 0.000000 7.125000 0.000000 0.000000 22.207161 64.677424 -10.872317
-0.793953 16.523939 -43.869983 -1.157923 -1.067215 19.688239 0.000000 0.000000 0.000000 -15.880721 -8.540329 -50.289851 10.136362 17.480666 59.936118 0.256105 1.650112 -10.320326 0.119022 -2.214687 -6.099839 0.000000 0.000000 0.000000 24.983954 2.141472 -28.917394 -3.180905 -10.982308 32.220094 -0.852046 19.548220 -20.124236 -0.000197 -0.078060 0.214540 1.788605 0.815913 -16.628255 1.840718 0.685929 -4.990957 1.063102 0.345542 3.991596 1.549913 -0.792739 -3.220099 -3.800341 -0.862420 7.844117 -1.538183 -0.517313 3.057058 0.000000 0.000000 0.000000 -0.540005 13.118402 -25.274604 10.502071 -17.521086 1.622881 13.053952 9.581288 18.519284 0.000000 0.000000 0.000000 -7.125000 0.000000 0.000000 -9.832164 11.217427 -7.852499 0.000000 0.000000 0.000000 -3.635017 -0.367972 21.700621 -21.746161 -32.682314 -6.451149 -15.384796 2.004650 36.142836 0.000000 0.000000 0.000000 7.125000 0.000000 0.000000 23.944558 65.619794 -12.241578
-0.785980 16.503208 -43.753174 -1.154534 -1.219173 19.861459 0.000000 0.000000 0.000000 -15.812882 -8.933944 -50.784726 9.614643 17.187249 58.192227 0.255308 2.275218 -10.659788 0.150583 -2.500131 -6.890058 0.000000 0.000000 0.000000 24.985881 1.747658 -28.778991 -3.180108 -10.981112 32.216041 -0.835170 19.988079 -20.213404 -0.000596 -0.153739 0.422510 1.922158 0.858769 -16.406132 1.723577 0.736294 -5.106835 0.868753 0.369064 3.753394 1.508120 -0.747158 -3.623149 -3.674762 -0.804680 8.085375 -1.495925 -0.490470 3.217587 0.000000 0.000000 0.000000 -0.529308 13.600653 -25.000455 10.461607 -17.458430 1.610722 12.449178 9.607932 18.840076 0.000000 0.000000 0.000000 -7.125000 0.000000 0.000000 -10.230497 10.954641 -8.235748 0.000000 0.000000 0.000000 -3.662326 -0.700458 22.652632 -22.592791 -33.640371 -6.911474 -15.619145 1.146524 36.823955 0.000000 0.000000 0.000000 7.125000 0.000000 0.000000 24.478236 66.292341 -12.901567
-0.775770 16.492805 -43.624986 -1.173115 -1.380799 19.804199 0.000000 0.000000 0.000000 -15.749976 -9.123784 -50.885733 9.084176 16.855550 56.371772 0.266153 2.529871 -11.012735 0.075126 -1.658498 -4.565507 0.000000 0.000000 0.000000 25.042270 1.002270 -28.394124 -3.154776 -10.941503 32.082803 -0.767711 20.803916 -20.168651 -0.007309 -0.493314 1.355598 1.946851 0.866698 -16.764223 1.736542 0.712989 -4.453526 0.877719 0.362196 4.638125 1.419626 -0.646062 -5.245428 -3.639757 -0.670508 8.197383 -1.484121 -0.439618 3.575576 0.000000 0.000000 0.000000 -0.758233 12.910508 -24.656979 10.391543 -17.349730 1.589749 11.657863 9.891498 18.561909 0.000000 0.000000 0.000000 -7.125000 0.000000 0.000000 -10.741964 11.305548 -8.582229 0.000000 0.000000 0.000000 -3.947017 -2.277892 23.213208 -22.754164 -33.818716 -7.001083 -16.146066 0.523813 35.698132 0.000000 0.000000 0.000000 7.125000 0.000000 0.000000 22.605753 65.430524 -11.444085
-0.765248 16.484568 -43.489723 -1.002624 -1.194577 19.599993 0.000000 0.000000 0.000000 -15.848060 -9.554496 -50.676552 8.531421 16.488922 54.442956 0.278566 2.652946 -11.306211 0.024197 -0.835259 -2.296522 0.000000 0.000000 0.000000 24.984541 0.029477 -27.831702 -3.118498 -10.884330 31.890902 -0.758573 21.313546 -20.355073 -0.009769 -0.635350 1.745852 1.800540 0.756347 -16.875499 1.734878 0.583640 -4.250549 0.936918 0.299215 4.912081 1.334137 -0.643480 -5.291331 -3.640050 -0.665441 8.046611 -1.467181 -0.439109 3.533009 0.000000 0.000000 0.000000 -1.003059 13.345806 -24.404047 10.438686 -17.422671 1.603967 10.896358 10.227292 18.331244 0.000000 0.000000 0.000000 -7.125000 0.000000 0.000000 -11.235570 11.603496 -8.922955 0.000000 0.000000 0.000000 -4.266960 -2.696465 23.812631 -23.256850 -34.361709 -7.285696 -16.644833 0.169760 35.519867 0.000000 0.000000 0.000000 7.125000 0.000000 0.000000 21.827693 65.415605 -11.008177
-0.754418 16.478522 -43.347067 -0.631068 -0.638772 19.242192 0.000000 0.000000 0.000000 -16.117092 -10.243256 -50.142142 7.955085 16.085607 52.399867 0.292520 2.640255 -11.536374 0.000477 -0.043711 -0.120146 0.000000 0.000000 0.000000 24.805009 -1.181067 -27.083342 -3.070858 -10.808916 31.638082 -0.811928 21.493875 -20.788488 -0.007643 -0.564720 1.551703 1.473768 0.520736 -16.718359 1.716274 0.342448 -4.534198 1.047282 0.176957 4.525177 1.252344 -0.746137 -3.649698 -3.676860 -0.798329 7.618113 -1.444457 -0.492330 3.062850 0.000000 0.000000 0.000000 -1.262191 14.989168 -24.248036 10.610644 -17.689046 1.655661 10.168530 10.615791 18.157492 0.000000 0.000000 0.000000 -7.125000 0.000000 0.000000 -11.708984 11.838575 -9.257966 0.000000 0.000000 0.000000 -4.621572 -1.870698 24.457537 -24.129460 -35.300431 -7.781435 -17.110539 0.098532 36.367561 0.000000 0.000000 0.000000 7.125000 0.000000 0.000000 22.238052 66.316786 -11.680192
-0.753093 16.481200 -43.214569 -0.599184 -0.937907 19.228880 0.000000 0.000000 0.000000 -16.211959 -10.167706 -50.314550 7.376340 15.631507 50.268035 0.276067 3.010923 -11.504474 0.029624 -0.906179 -2.492056 0.000000 0.000000 0.000000 24.739091 -1.615974 -26.434794 -2.992616 -10.682587 31.217217 -0.745873 22.075664 -20.669457 -0.022380 -0.928298 2.551708 1.291081 0.562422 -16.559656 1.704506 0.433570 -4.602860 1.153869 0.220662 4.365502 1.248356 -0.765193 -3.735523 -3.700714 -0.817928 7.770253 -1.455589 -0.504859 3.130619 0.000000 0.000000 0.000000 -1.433492 15.545347 -24.098080 10.611691 -17.690624 1.655984 9.928104 10.768662 18.107578 0.000000 0.000000 0.000000 -7.125000 0.000000 0.000000 -11.865645 11.907757 -9.370111 0.000000 0.000000 0.000000 -4.874745 -2.034646 24.941690 -24.861957 -36.057696 -8.210504 -16.818708 -0.790980 34.405562 0.000000 0.000000 0.000000 7.125000 0.000000 0.000000 20.537136 64.435359 -9.901197
